<?xml version="1.0" encoding="iso-8859-1"?>
<!-- Generator: Adobe Illustrator 19.0.0, SVG Export Plug-In . SVG Version: 6.00 Build 0)  -->
<svg version="1.1" id="Layer_1" xmlns="http://www.w3.org/2000/svg" xmlns:xlink="http://www.w3.org/1999/xlink" x="0px" y="0px"
	 viewBox="0 0 512 512" style="enable-background:new 0 0 512 512;" xml:space="preserve">
<g>
	<rect x="100.809" y="100.809" style="fill:#74DD54; fill-opacity:.6" width="400.982" height="400.982"/>
	<polygon style="fill:#74DD54; fill-opacity:.6" points="100.814,100.814 501.801,100.814 411.187,10.199 10.199,10.199 	"/>
	<polygon style="fill:#74DD54; fill-opacity:.6" points="100.814,501.801 100.814,100.814 10.199,10.199 10.199,411.186 	"/>
</g>
<g>
	<path style="fill:#FFFFFF;" d="M509.014,93.602L509.014,93.602L418.399,2.987C416.486,1.075,413.892,0,411.187,0H10.199
		c0,0-0.015,0.01-0.034,0.024c-1.303,0.004-2.617,0.233-3.87,0.752C2.486,2.355,0,6.075,0,10.199v400.987
		c0,2.705,1.075,5.3,2.987,7.212l90.615,90.615c1.951,1.951,4.56,2.987,7.214,2.987c0.003,0,0.007,0,0.01,0h400.975
		c5.632,0,10.199-4.566,10.199-10.199V100.814C512,97.997,510.859,95.448,509.014,93.602z M400.988,20.398v38.757
		c0,5.633,4.567,10.199,10.199,10.199c5.632,0,10.199-4.566,10.199-10.199V34.823l55.792,55.792H105.04L34.823,20.398H400.988z
		 M33.638,420.201c3.231-1.711,5.435-5.104,5.435-9.015c0-5.633-4.567-10.199-10.199-10.199h-8.476V34.822l70.216,70.216v295.948
		H77.831c-5.632,0-10.199,4.566-10.199,10.199c0,5.633,4.567,10.199,10.199,10.199h12.784v55.793L33.638,420.201z M111.013,421.385
		h15.774c5.632,0,10.199-4.566,10.199-10.199c0-5.633-4.567-10.199-10.199-10.199h-15.774V111.013h289.975v46.055
		c0,5.633,4.567,10.199,10.199,10.199c5.632,0,10.199-4.566,10.199-10.199v-46.055h70.215v366.165l-3.97-3.969
		c-3.984-3.983-10.44-3.983-14.425,0c-3.983,3.983-3.983,10.441,0,14.424l3.969,3.969H111.013V421.385z"/>
	<path style="fill:#FFFFFF;" d="M411.187,363.092c5.632,0,10.199-4.566,10.199-10.199v-48.956c0-5.633-4.567-10.199-10.199-10.199
		c-5.632,0-10.199,4.566-10.199,10.199v48.956C400.988,358.525,405.554,363.092,411.187,363.092z"/>
	<path style="fill:#FFFFFF;" d="M411.187,265.179c5.632,0,10.199-4.566,10.199-10.199v-48.956c0-5.633-4.567-10.199-10.199-10.199
		c-5.632,0-10.199,4.566-10.199,10.199v48.956C400.988,260.613,405.554,265.179,411.187,265.179z"/>
	<path style="fill:#FFFFFF;" d="M224.7,400.987h-48.956c-5.632,0-10.199,4.566-10.199,10.199c0,5.633,4.567,10.199,10.199,10.199
		H224.7c5.632,0,10.199-4.566,10.199-10.199C234.899,405.553,230.332,400.987,224.7,400.987z"/>
	<path style="fill:#FFFFFF;" d="M322.612,400.987h-48.956c-5.632,0-10.199,4.566-10.199,10.199c0,5.633,4.567,10.199,10.199,10.199
		h48.956c5.632,0,10.199-4.566,10.199-10.199C332.811,405.553,328.244,400.987,322.612,400.987z"/>
	<path style="fill:#FFFFFF;" d="M421.386,406.961v-5.113c0-5.633-4.567-10.199-10.199-10.199c-5.342,0-9.726,4.108-10.164,9.337
		h-29.455c-5.632,0-10.199,4.566-10.199,10.199c0,5.633,4.567,10.199,10.199,10.199h35.393l31.631,31.63
		c1.992,1.992,4.602,2.987,7.212,2.987s5.22-0.996,7.212-2.987c3.983-3.983,3.983-10.441,0-14.424L421.386,406.961z"/>
</g>
<g>
</g>
<g>
</g>
<g>
</g>
<g>
</g>
<g>
</g>
<g>
</g>
<g>
</g>
<g>
</g>
<g>
</g>
<g>
</g>
<g>
</g>
<g>
</g>
<g>
</g>
<g>
</g>
<g>
</g>
</svg>
