<?xml version="1.0" standalone="no"?>
<!DOCTYPE svg PUBLIC "-//W3C//DTD SVG 1.1//EN" "http://www.w3.org/Graphics/SVG/1.1/DTD/svg11.dtd">
<svg xmlns="http://www.w3.org/2000/svg">
<defs >
<font id="Heebo" horiz-adv-x="1072" ><font-face
    font-family="Heebo"
    units-per-em="2048"
    panose-1="0 0 0 0 0 0 0 0 0 0"
    ascent="2146"
    descent="-862"
    alphabetic="0" />
<glyph unicode=" " horiz-adv-x="508" />
<glyph unicode="!" horiz-adv-x="529" d="M349 411H181L167 1456H363L349 411ZM161 93Q161 137 188 168T270 199Q324 199 352 168T381 93Q381 49 353 19T270 -11Q216 -11 189 19T161 93Z" />
<glyph unicode="&quot;" horiz-adv-x="658" d="M278 1400L248 1044H136L137 1391V1536H278V1400ZM549 1400L519 1044H407L408 1398V1536H549V1400Z" />
<glyph unicode="#" horiz-adv-x="1263" d="M563 1456H707L423 0H279L563 1456ZM970 1456H1115L830 0H686L970 1456ZM196 902V1040H1236V902H196ZM120 410V547H1161V410H120Z" />
<glyph unicode="$" horiz-adv-x="1151" d="M675 1388H524V1692H675V1388ZM656 -208H507V58H656V-208ZM855 375Q855 435 828 483T740 571T574 646Q448 685 357 741T216 879T166 1080Q166 1203 219 1292T369 1429T597 1477Q733 1477 829 1423T977 1265T1029 1009H843Q843
1143 780 1230T597 1317Q514 1317 460 1288T379 1206T353 1083Q353 1019 379 971T467 885T639 809Q768 768 858 713T995 576T1042 377Q1042 248 984 160T822 25T575 -21Q490 -21 407 2T257 77T150 215T110 429H297Q297 344 321 288T387 199T477 153T575 139Q664
139 726 168T822 250T855 375Z" />
<glyph unicode="%" horiz-adv-x="1500" d="M105 1176Q105 1259 141 1327T244 1436T403 1477Q497 1477 564 1436T667 1327T703 1176V1099Q703 1018 667 950T565 841T405 800Q312 800 245 841T141 950T105 1099V1176ZM245 1099Q245 1053 262 1012T315 946T405 920Q459
920 494 945T546 1012T563 1099V1176Q563 1223 546 1264T493 1331T403 1357Q350 1357 315 1332T263 1265T245 1176V1099ZM814 357Q814 439 850 507T952 616T1112 657Q1206 657 1272 616T1375 507T1411 357V279Q1411 197 1376 129T1274 20T1114 -21Q1021 -21 954
20T850 129T814 279V357ZM953 279Q953 233 970 192T1024 125T1114 99Q1168 99 1203 124T1255 191T1272 279V357Q1272 428 1233 482T1112 537Q1032 537 993 483T953 357V279ZM447 111L342 177L1053 1315L1158 1249L447 111Z" />
<glyph unicode="&amp;" horiz-adv-x="1274" d="M628 963Q691 1006 725 1050T759 1169Q759 1228 714 1277T584 1326Q496 1326 452 1268T407 1129Q407 1062 455 987T579 826L1268 0H1044L480 677Q367 808 294 909T220 1123Q220 1237 265 1315T393 1435T585 1476Q692
1476 770 1434T890 1322T932 1169Q932 1099 907 1044T838 942T734 852L445 638Q373 585 340 537T298 451T288 391Q288 320 319 261T413 166T573 130Q656 130 735 169T877 280T977 451T1015 672H1183Q1183 524 1140 400T1004 184Q995 175 990 164T976 143Q901 61
792 21T573 -20Q428 -20 322 33T159 178T101 391Q101 483 141 553T250 684T410 808L628 963Z" />
<glyph unicode="&apos;" horiz-adv-x="358" d="M255 1425L233 1058H103L104 1409V1536H255V1425Z" />
<glyph unicode="(" horiz-adv-x="702" d="M133 591Q133 809 182 985T307 1295T468 1516T624 1643L663 1522Q605 1477 545 1398T433 1203T351 935T320 594V579Q320 390 351 238T433 -31T544 -229T663 -359L624 -470Q553 -430 469 -343T308 -123T182 186T133 581V591Z" />
<glyph unicode=")" horiz-adv-x="714" d="M568 581Q568 363 519 187T394 -123T234 -343T78 -470L39 -359Q98 -314 158 -233T269 -35T351 236T382 579V594Q382 783 349 937T264 1208T152 1406T39 1531L78 1643Q149 1604 233 1517T394 1296T519 986T568 591V581Z" />
<glyph unicode="*" horiz-adv-x="882" d="M329 984L28 1075L75 1224L376 1112L367 1457H521L511 1107L807 1218L854 1066L548 975L745 703L619 610L435 899L255 617L129 708L329 984Z" />
<glyph unicode="+" horiz-adv-x="1162" d="M1076 607H78V780H1076V607ZM671 146H484V1206H671V146Z" />
<glyph unicode="," horiz-adv-x="403" d="M310 71Q310 -20 264 -121T134 -290L28 -218Q60 -174 82 -129T115 -35T127 68V219H310V71Z" />
<glyph unicode="-" horiz-adv-x="565" d="M526 544H37V695H526V544Z" />
<glyph unicode="." horiz-adv-x="541" d="M144 97Q144 144 173 176T259 209Q316 209 345 177T375 97Q375 51 346 20T259 -11Q203 -11 174 20T144 97Z" />
<glyph unicode="/" horiz-adv-x="846" d="M178 -125H18L626 1456H785L178 -125Z" />
<glyph unicode="0" horiz-adv-x="1151" d="M1035 621Q1035 384 980 244T821 42T577 -20Q438 -20 334 41T173 243T115 621V844Q115 1082 171 1220T331 1417T575 1476Q716 1476 819 1417T978 1220T1035 844V621ZM848 875Q848 1039 817 1138T725 1281T575 1326Q487
1326 426 1282T334 1138T302 875V592Q302 429 334 327T427 178T577 130Q667 130 727 177T817 327T848 592V875Z" />
<glyph unicode="1" horiz-adv-x="1151" d="M730 0H543V1235L171 1098V1265L701 1464H730V0Z" />
<glyph unicode="2" horiz-adv-x="1151" d="M1076 0H121V132L598 663Q687 761 735 829T803 953T822 1065Q822 1173 757 1249T570 1326Q472 1326 408 1288T312 1183T280 1028H93Q93 1151 147 1253T307 1415T570 1476Q776 1476 892 1369T1009 1087Q1009 1001 972
914T873 742T736 575L346 150H1076V0Z" />
<glyph unicode="3" horiz-adv-x="1151" d="M523 818Q619 818 682 851T777 940T809 1069Q809 1152 781 1209T697 1296T556 1326Q478 1326 419 1295T327 1208T294 1075H107Q107 1187 163 1277T320 1422T556 1476Q688 1476 787 1430T941 1292T996 1065Q996 1009 971
947T892 831T753 742T549 707H391V818H523ZM391 778H549Q688 778 779 745T922 658T996 537T1018 406Q1018 270 958 175T793 30T557 -20Q462 -20 378 7T231 85T131 212T95 385H282Q282 309 315 252T410 162T557 130Q684 130 757 198T831 402Q831 493 793 552T686
639T523 668H391V778Z" />
<glyph unicode="4" horiz-adv-x="1151" d="M1105 339H53V447L704 1456H856L694 1165L264 489H1105V339ZM903 0H716V1456H903V0Z" />
<glyph unicode="5" horiz-adv-x="1151" d="M206 731L280 1456H1027V1287H438L395 888Q434 911 495 931T637 951Q771 951 868 891T1017 722T1070 464Q1070 325 1020 216T867 43T609 -20Q521 -20 443 4T303 79T202 205T154 383H331Q348 259 420 195T609 130Q696
130 757 170T851 285T883 462Q883 554 850 627T752 743T593 786Q500 786 453 762T356 693L206 731Z" />
<glyph unicode="6" horiz-adv-x="1151" d="M847 1458V1302H831Q684 1302 586 1255T429 1128T345 949T320 747V533Q320 403 360 314T464 178T601 132Q687 132 746 175T837 293T869 466Q869 553 841 630T754 755T605 803Q528 803 462 766T353 667T305 535L207 536Q221
647 259 726T355 856T484 931T636 955Q781 955 873 885T1009 705T1053 475Q1053 337 1002 225T850 47T601 -20Q483 -20 395 28T249 157T162 337T133 538V626Q133 781 163 929T270 1196T483 1387T831 1458H847Z" />
<glyph unicode="7" horiz-adv-x="1151" d="M1063 1353L460 0H264L865 1306H78V1456H1063V1353Z" />
<glyph unicode="8" horiz-adv-x="1151" d="M1039 394Q1039 261 978 169T812 28T576 -20Q445 -20 340 28T174 168T113 394Q113 509 172 599T335 740T574 792Q708 792 813 741T978 599T1039 394ZM852 398Q852 479 817 541T720 639T574 674Q490 674 429 639T334 542T300
398Q300 314 333 254T429 162T576 130Q662 130 723 162T818 254T852 398ZM1005 1077Q1005 971 949 886T796 752T576 703Q451 703 354 752T201 886T146 1077Q146 1204 201 1293T354 1429T576 1476Q700 1476 797 1429T949 1293T1005 1077ZM818 1074Q818 1147 788
1203T703 1293T576 1326Q503 1326 449 1295T364 1208T333 1074Q333 999 363 943T448 856T576 825Q649 825 703 856T787 943T818 1074Z" />
<glyph unicode="9" horiz-adv-x="1151" d="M324 154Q484 154 584 199T737 320T811 492T831 689V912Q831 1045 792 1137T690 1276T552 1324Q467 1324 407 1279T315 1157T283 983Q283 897 311 818T398 689T546 639Q607 639 661 664T758 731T826 828T856 942H945Q945
859 913 778T822 631T686 526T516 487Q372 487 280 559T144 742T100 973Q100 1112 151 1226T303 1408T552 1476Q677 1476 765 1427T909 1293T991 1104T1017 888V819Q1017 705 1003 589T948 367T830 178T630 46T324 -2H305V154H324Z" />
<glyph unicode=":" horiz-adv-x="498" d="M389 97Q389 144 418 176T504 209Q561 209 590 177T620 97Q620 51 591 20T504 -11Q448 -11 419 20T389 97ZM134 981Q134 1028 163 1060T249 1093Q306 1093 335 1061T365 981Q365 935 336 904T249 873Q193 873 164 904T134 981Z" />
<glyph unicode=";" horiz-adv-x="434" d="M110 981Q110 1028 139 1060T225 1093Q282 1093 311 1061T341 981Q341 935 312 904T225 873Q169 873 140 904T110 981ZM323 71Q323 -20 277 -121T147 -290L41 -218Q73 -174 95 -129T128 -35T140 68V219H323V71Z" />
<glyph unicode="&lt;" horiz-adv-x="1041" d="M890 391V196L72 575V690L200 672L890 391ZM201 618L72 604V720L890 1098V904L201 618Z" />
<glyph unicode="=" horiz-adv-x="1124" d="M986 815H152V974H986V815ZM986 400H152V559H986V400Z" />
<glyph unicode="&gt;" horiz-adv-x="1071" d="M135 910V1099L989 721V606L846 632L135 910ZM847 672L989 692V577L135 198V388L847 672Z" />
<glyph unicode="?" horiz-adv-x="969" d="M357 410Q358 506 374 567T428 680T529 796Q575 843 614 884T677 974T701 1091Q701 1195 646 1255T487 1316Q400 1316 331 1268T262 1115H75Q77 1228 131 1309T279 1433T487 1476Q678 1476 782 1374T887 1096Q887 1006
851 931T758 789T637 663Q582 613 563 549T544 410H357ZM349 93Q349 137 377 168T459 199Q513 199 541 168T569 93Q569 49 541 19T459 -11Q405 -11 377 19T349 93Z" />
<glyph unicode="@" horiz-adv-x="1838" d="M1735 503Q1731 411 1708 319T1636 149T1511 26T1326 -21Q1187 -21 1122 74T1072 329L1123 883H1271L1220 329Q1214 256 1223 211T1253 141T1298 107T1347 98Q1428 98 1483 152T1570 299T1605 503Q1617 752 1552 930T1342
1204T964 1300Q755 1300 601 1197T360 908T261 478Q252 291 290 142T410 -112T614 -273T896 -329Q985 -329 1075 -308T1227 -251L1265 -364Q1195 -409 1091 -431T892 -453Q639 -453 461 -340T194 -18T115 478Q124 684 187 857T362 1160T627 1360T968 1431Q1225
1431 1400 1318T1661 996T1735 503ZM710 418Q701 324 716 258T769 157T865 122Q904 122 947 148T1028 232T1091 384L1157 312Q1111 149 1017 64T819 -21Q721 -21 657 34T565 188T550 418Q566 594 629 722T786 920T982 990Q1091 990 1153 959T1271 883L1186 786Q1156
813 1110 837T998 862Q926 862 865 812T764 664T710 418Z" />
<glyph unicode="A" horiz-adv-x="1338" d="M228 0H28L584 1456H712L709 1328L228 0ZM629 1328L627 1456H754L1311 0H1112L629 1328ZM1088 381H269V538H1088V381Z" />
<glyph unicode="B" horiz-adv-x="1276" d="M320 682L318 835H652Q776 835 852 897T928 1070Q928 1190 859 1244T647 1299H363V0H169V1456H647Q870 1456 996 1364T1122 1068Q1122 978 1076 906T948 787T756 728L688 682H320ZM243 0L354 156H679Q816 156 891 227T966
418Q966 499 937 558T847 650T688 682H413L415 835H791L832 779Q937 770 1010 720T1121 592T1160 420Q1160 215 1029 108T679 0H243Z" />
<glyph unicode="C" horiz-adv-x="1333" d="M1241 462Q1226 325 1162 216T981 43T688 -20Q517 -20 389 63T190 299T119 654V801Q119 1005 190 1156T394 1392T706 1476Q871 1476 985 1415T1162 1243T1241 989H1047Q1025 1142 950 1230T706 1319Q577 1319 490 1255T359
1074T314 803V654Q314 511 354 394T476 206T688 136Q811 136 883 175T993 287T1047 462H1241Z" />
<glyph unicode="D" horiz-adv-x="1344" d="M259 0L261 156H563Q718 156 822 221T978 405T1031 684V774Q1031 941 979 1058T825 1237T580 1299H253V1456H580Q772 1456 916 1373T1142 1136T1223 772V684Q1223 473 1142 320T913 84T563 0H259ZM363 0H169V1456H363V0Z" />
<glyph unicode="E" horiz-adv-x="1164" d="M1094 0H325V156H1094V0ZM363 0H169V1456H363V0ZM992 674H325V830H992V674ZM1084 1299H325V1456H1084V1299Z" />
<glyph unicode="F" horiz-adv-x="1132" d="M363 0H169V1456H363V0ZM972 644H321V800H972V644ZM1071 1299H321V1456H1071V1299Z" />
<glyph unicode="G" horiz-adv-x="1395" d="M1245 191Q1218 152 1160 103T998 17T730 -20Q553 -20 416 62T200 299T122 671V786Q122 1003 190 1157T388 1394T707 1476Q874 1476 987 1419T1163 1260T1245 1030H1051Q1038 1109 1000 1174T890 1279T708 1319Q573 1319
487 1255T359 1071T317 788V671Q317 503 369 384T514 200T731 136Q834 136 897 153T997 195T1052 242V570H716V725H1245V191Z" />
<glyph unicode="H" horiz-adv-x="1461" d="M1119 674H333V830H1119V674ZM363 0H169V1456H363V0ZM1289 0H1095V1456H1289V0Z" />
<glyph unicode="I" horiz-adv-x="558" d="M377 0H183V1456H377V0Z" />
<glyph unicode="J" horiz-adv-x="1130" d="M779 1456H973V426Q973 282 914 183T751 32T513 -20Q379 -20 275 26T112 166T53 403H247Q247 265 321 201T513 136Q589 136 649 169T744 266T779 426V1456Z" />
<glyph unicode="K" horiz-adv-x="1285" d="M363 0H169V1456H363V0ZM637 777L297 425L265 629L520 912L1008 1456H1242L637 777ZM516 710L632 863L1286 0H1054L516 710Z" />
<glyph unicode="L" horiz-adv-x="1103" d="M1053 0H325V156H1053V0ZM363 0H169V1456H363V0Z" />
<glyph unicode="M" horiz-adv-x="1789" d="M419 1456L894 266L1369 1456H1558L967 0H820L230 1456H419ZM335 1456L362 569V0H169V1456H335ZM1619 1456V0H1426V569L1453 1456H1619Z" />
<glyph unicode="N" horiz-adv-x="1461" d="M1289 0H1094L363 1126V0H169V1456H363L1097 327V1456H1289V0Z" />
<glyph unicode="O" horiz-adv-x="1410" d="M1290 681Q1290 463 1218 306T1015 65T706 -20Q534 -20 401 64T193 306T118 681V774Q118 992 192 1149T399 1391T704 1476Q882 1476 1013 1392T1217 1150T1290 774V681ZM1098 776Q1098 950 1051 1069T916 1251T704 1313Q585
1313 497 1251T360 1070T311 776V681Q311 506 360 386T498 204T706 142Q831 142 918 204T1052 386T1098 681V776Z" />
<glyph unicode="P" horiz-adv-x="1293" d="M319 571V727H707Q820 727 889 763T991 864T1024 1010Q1024 1085 992 1151T890 1258T707 1299H363V0H169V1456H707Q872 1456 986 1399T1159 1242T1218 1012Q1218 872 1159 773T986 623T707 571H319Z" />
<glyph unicode="Q" horiz-adv-x="1410" d="M1287 -127L1156 -247L791 43L916 166L1287 -127ZM1282 681Q1282 463 1210 306T1007 65T697 -20Q525 -20 392 64T184 306T109 681V774Q109 992 183 1149T390 1391T695 1476Q873 1476 1005 1392T1209 1150T1282 774V681ZM1089
776Q1089 950 1043 1069T908 1251T695 1313Q577 1313 489 1251T352 1070T303 776V681Q303 506 352 386T490 204T697 142Q822 142 909 204T1043 386T1089 681V776Z" />
<glyph unicode="R" horiz-adv-x="1261" d="M651 1456Q815 1456 929 1406T1102 1259T1162 1019Q1162 919 1122 837T1005 697T824 611L770 590H318L316 746H656Q760 746 829 783T932 882T967 1019Q967 1146 892 1222T651 1299H363V0H169V1456H651ZM665 660H868L1226
12V0H1018L665 660Z" />
<glyph unicode="S" horiz-adv-x="1216" d="M944 368Q944 437 915 485T811 572T598 651Q490 682 404 721T255 812T160 929T127 1080Q127 1194 188 1283T361 1424T621 1476Q786 1476 901 1414T1076 1251T1136 1036H941Q941 1118 907 1182T801 1282T621 1319Q519
1319 453 1288T354 1204T322 1083Q322 1022 357 975T467 889T661 817Q826 771 932 710T1088 566T1139 370Q1139 252 1076 164T899 28T631 -20Q530 -20 433 8T256 92T129 230T81 422H275Q275 347 304 293T383 204T497 153T631 136Q732 136 801 164T907 245T944 368Z"
/>
<glyph unicode="T" horiz-adv-x="1222" d="M708 0H516V1456H708V0ZM1175 1299H50V1456H1175V1299Z" />
<glyph unicode="U" horiz-adv-x="1328" d="M1195 1456V471Q1195 307 1122 198T928 35T666 -20Q518 -20 399 34T210 198T140 471V1456H332V471Q332 357 374 283T491 173T666 136Q767 136 842 172T958 283T1000 471V1456H1195Z" />
<glyph unicode="V" horiz-adv-x="1305" d="M1067 1456H1278L739 0H589L639 220L1067 1456ZM664 220L717 0H567L29 1456H240L664 220Z" />
<glyph unicode="W" horiz-adv-x="1817" d="M840 1456H982L900 1063L590 0H449L552 439L840 1456ZM484 458L552 0H413L61 1456H255L484 458ZM1578 1456H1773L1421 0H1282L1354 459L1578 1456ZM1283 439L1385 0H1244L945 1063L864 1456H1003L1283 439Z" />
<glyph unicode="X" horiz-adv-x="1285" d="M645 897L993 1456H1220L761 735L1231 0H1002L645 570L286 0H58L529 735L68 1456H296L645 897Z" />
<glyph unicode="Y" horiz-adv-x="1230" d="M614 724L992 1456H1212L711 544V0H516V544L15 1456H237L614 724Z" />
<glyph unicode="Z" horiz-adv-x="1227" d="M1146 0H160V156H1146V0ZM207 0H87V143L993 1456H1114V1317L207 0ZM1032 1299H99V1456H1032V1299Z" />
<glyph unicode="[" horiz-adv-x="545" d="M524 1514H333V-162H524V-312H146V1664H524V1514Z" />
<glyph unicode="\" horiz-adv-x="841" d="M41 1456H218L826 -125H649L41 1456Z" />
<glyph unicode="]" horiz-adv-x="545" d="M10 1664H389V-312H10V-162H202V1514H10V1664Z" />
<glyph unicode="^" horiz-adv-x="856" d="M237 729H64L363 1456H475L439 1244L237 729ZM415 1244L378 1456H491L789 729H616L415 1244Z" />
<glyph unicode="_" horiz-adv-x="925" d="M921 -150H4V0H921V-150Z" />
<glyph unicode="`" horiz-adv-x="634" d="M475 1243H315L56 1536H281L475 1243Z" />
<glyph unicode="a" horiz-adv-x="1115" d="M778 742Q778 839 721 896T551 954Q482 954 430 930T348 867T319 782H132Q132 860 185 933T334 1054T562 1102Q680 1102 771 1062T913 942T965 740V236Q965 182 974 121T1003 16V0H808Q794 32 786 85T778 185V742ZM812
526H626Q468 526 382 476T296 326Q296 248 348 194T502 140Q587 140 652 176T755 265T796 367L876 278Q869 236 838 185T756 88T634 11T475 -20Q365 -20 283 22T155 138T109 300Q109 475 241 565T596 656H810L812 526Z" />
<glyph unicode="b" horiz-adv-x="1150" d="M327 1536V210L311 0H140V1536H327ZM1057 529Q1057 371 1008 247T865 52T637 -20Q499 -20 407 42T264 219T197 491V588Q213 747 264 862T406 1039T635 1102Q771 1102 865 1033T1008 840T1057 550V529ZM870 550Q870 658
843 748T755 893T588 947Q519 947 468 923T380 859T322 767T288 660V417Q304 347 340 283T437 177T590 136Q690 136 751 189T841 332T870 529V550Z" />
<glyph unicode="c" horiz-adv-x="1073" d="M574 130Q640 130 696 157T788 233T829 342H1006Q1001 246 941 164T785 31T574 -20Q411 -20 304 54T145 252T92 520V562Q92 708 145 830T305 1027T574 1102Q701 1102 796 1051T946 911T1006 710H829Q824 777 792 832T704
919T574 952Q461 952 397 894T306 747T279 562V520Q279 425 305 335T395 188T574 130Z" />
<glyph unicode="d" horiz-adv-x="1156" d="M822 1536H1009V0H838L822 210V1536ZM95 550Q95 715 148 839T298 1033T523 1102Q659 1102 750 1040T892 862T959 588V491Q944 334 893 220T751 43T521 -20Q394 -20 298 51T149 247T95 529V550ZM282 529Q282 421 311 332T404
190T567 136Q659 136 718 175T814 278T870 417V660Q858 715 836 766T778 858T691 923T569 947Q468 947 405 893T312 749T282 550V529Z" />
<glyph unicode="e" horiz-adv-x="1087" d="M590 -20Q439 -20 328 47T155 233T93 503V546Q93 722 160 846T336 1036T566 1102Q722 1102 820 1033T965 844T1012 573V490H204V640H825V654Q821 726 796 794T716 907T566 952Q482 952 418 905T317 767T280 546V503Q280
400 318 316T428 181T600 130Q698 130 766 170T885 277L998 189Q946 109 849 45T590 -20Z" />
<glyph unicode="f" horiz-adv-x="712" d="M231 0V1197Q231 1371 326 1464T588 1557Q620 1557 652 1553T715 1541L705 1392Q684 1396 658 1398T605 1400Q517 1400 468 1348T418 1197V0H231ZM648 941H61V1082H648V941Z" />
<glyph unicode="g" horiz-adv-x="1150" d="M1011 1082V23Q1011 -120 953 -221T791 -374T552 -427Q496 -427 421 -410T273 -351T151 -239L248 -130Q316 -212 390 -244T538 -277Q669 -277 746 -203T824 14V844L841 1082H1011ZM96 550Q96 715 148 839T296 1033T524
1102Q626 1102 702 1067T832 964T917 802T961 588V491Q946 334 895 220T751 43T522 -20Q392 -20 297 51T149 247T96 529V550ZM283 529Q283 421 312 332T405 190T568 136Q660 136 719 175T814 278T870 417V660Q858 715 836 766T778 858T691 923T570 947Q469 947
406 893T313 749T283 550V529Z" />
<glyph unicode="h" horiz-adv-x="1128" d="M327 0H140V1536H327V0ZM205 586Q207 734 262 850T415 1034T645 1102Q752 1102 829 1063T949 937T992 709V0H805V711Q805 796 781 848T708 923T590 947Q521 947 465 918T368 838T305 722T283 583L205 586Z" />
<glyph unicode="i" horiz-adv-x="498" d="M343 0H156V1082H343V0ZM142 1370Q142 1414 169 1445T251 1476Q305 1476 333 1445T362 1370Q362 1327 334 1297T251 1266Q197 1266 170 1296T142 1370Z" />
<glyph unicode="j" horiz-adv-x="491" d="M333 1082V-129Q333 -278 263 -357T50 -437Q25 -437 -8 -432T-65 -420L-64 -272Q-45 -276 -21 -278T21 -281Q81 -281 113 -247T146 -129V1082H333ZM127 1370Q127 1414 154 1445T236 1476Q290 1476 318 1445T347 1370Q347
1327 319 1297T236 1266Q182 1266 155 1296T127 1370Z" />
<glyph unicode="k" horiz-adv-x="1039" d="M328 0H141V1536H328V0ZM518 578L252 304L237 500L427 725L761 1082H988L518 578ZM433 517L530 681L1038 0H818L433 517Z" />
<glyph unicode="l" horiz-adv-x="498" d="M343 0H156V1536H343V0Z" />
<glyph unicode="m" horiz-adv-x="1795" d="M326 0H139V1082H316L326 867V0ZM201 586Q202 734 251 850T398 1034T641 1102Q793 1102 892 1013T991 721V0H804V712Q804 797 776 848T695 923T573 947Q492 947 438 918T350 838T303 722T288 583L201 586ZM864 647Q865
765 914 869T1060 1037T1294 1102Q1410 1102 1491 1061T1614 934T1656 711V0H1469V713Q1469 804 1441 855T1361 926T1239 947Q1178 947 1132 926T1054 869T1006 785T989 685L864 647Z" />
<glyph unicode="n" horiz-adv-x="1131" d="M327 0H140V1082H317L327 851V0ZM205 586Q207 734 262 850T415 1034T645 1102Q752 1102 829 1063T949 937T992 709V0H805V711Q805 796 781 848T708 923T590 947Q521 947 465 918T368 838T305 722T283 583L205 586Z" />
<glyph unicode="o" horiz-adv-x="1169" d="M92 552Q92 709 152 833T322 1029T583 1102Q736 1102 847 1030T1017 833T1077 552V529Q1077 373 1018 249T848 52T585 -20Q433 -20 323 52T152 248T92 529V552ZM279 529Q279 422 313 331T414 185T585 130Q687 130 754
185T856 331T890 529V552Q890 659 856 750T754 896T583 952Q482 952 414 897T313 750T279 552V529Z" />
<glyph unicode="p" horiz-adv-x="1150" d="M327 -416H140V1082H310L327 874V-416ZM1055 529Q1055 371 1006 247T864 52T636 -20Q497 -20 403 40T256 210T187 472V588Q203 747 256 862T403 1039T633 1102Q769 1102 863 1033T1006 840T1055 550V529ZM868 550Q868
658 838 748T743 893T577 947Q508 947 457 923T370 859T312 767T278 660V399Q298 329 333 268T428 168T579 130Q679 130 743 185T837 330T868 529V550Z" />
<glyph unicode="q" horiz-adv-x="1165" d="M821 874L837 1082H1008V-416H821V874ZM95 550Q95 715 146 839T294 1033T526 1102Q663 1102 755 1040T900 862T968 588V491Q954 334 902 220T756 43T524 -20Q391 -20 295 51T147 247T95 529V550ZM282 529Q282 421 312
331T407 185T571 130Q663 130 723 170T821 276T879 417V660Q867 715 844 767T784 861T695 927T573 952Q472 952 408 897T313 750T282 550V529Z" />
<glyph unicode="r" horiz-adv-x="694" d="M327 0H140V1082H322L327 912V0ZM664 917Q640 922 620 923T573 925Q488 925 430 890T339 794T299 653L246 623Q246 754 281 862T390 1036T582 1102Q601 1102 627 1098T664 1088V917Z" />
<glyph unicode="s" horiz-adv-x="1057" d="M770 287Q770 327 753 361T682 424T522 475Q402 500 315 538T180 637T132 786Q132 872 181 943T321 1058T533 1102Q663 1102 755 1057T897 935T946 765H759Q759 832 701 892T533 952Q457 952 410 929T341 869T319 792Q319
752 339 723T412 670T568 624Q701 594 787 552T915 449T957 300Q957 206 905 134T759 21T538 -20Q395 -20 296 31T146 162T95 333H282Q287 257 326 213T423 149T538 130Q614 130 665 150T743 206T770 287Z" />
<glyph unicode="t" horiz-adv-x="670" d="M595 941H9V1082H595V941ZM393 1345V268Q393 212 410 184T454 147T512 138Q535 138 560 142T598 149L599 0Q577 -7 542 -13T456 -20Q388 -20 331 7T240 97T206 269V1345H393Z" />
<glyph unicode="u" horiz-adv-x="1129" d="M802 1082H989V0H811L802 250V1082ZM915 480Q915 336 874 223T740 45T491 -20Q332 -20 234 74T136 384V1082H323V382Q323 284 351 231T425 157T521 136Q639 136 708 181T807 305T837 478L915 480Z" />
<glyph unicode="v" horiz-adv-x="993" d="M764 1082H955L567 0H441L470 166L764 1082ZM528 161L550 0H425L33 1082H224L528 161Z" />
<glyph unicode="w" horiz-adv-x="1539" d="M692 1082H815L791 904L508 0H389L414 194L692 1082ZM466 184L482 0H357L43 1082H229L466 184ZM1306 1082H1491L1177 0H1053L1080 190L1306 1082ZM1115 208L1145 0H1026L735 906L712 1082H843L1115 208Z" />
<glyph unicode="x" horiz-adv-x="1016" d="M504 687L742 1082H960L607 548L971 0H756L507 407L259 0H41L406 548L52 1082H268L504 687Z" />
<glyph unicode="y" horiz-adv-x="969" d="M745 1082H944L510 -167Q495 -207 471 -253T409 -342T317 -410T189 -437Q174 -437 153 -434T113 -428T84 -421V-272Q92 -273 109 -275T134 -277Q228 -277 281 -238T367 -99L444 112L745 1082ZM505 241L553 46L419 -21L22
1082H226L505 241Z" />
<glyph unicode="z" horiz-adv-x="1016" d="M947 0H160V150H947V0ZM203 0H89V135L800 1082H918V952L203 0ZM836 931H97V1082H836V931Z" />
<glyph unicode="{" horiz-adv-x="694" d="M671 1484Q553 1446 508 1351T463 1132V925Q463 825 422 744T294 614T64 566V687Q177 687 226 751T276 925V1132Q276 1237 308 1328T418 1489T632 1597L671 1484ZM632 -367Q496 -328 419 -259T309 -99T276 98V305Q276
413 227 478T64 543V664Q206 664 293 616T422 487T463 305V98Q463 -25 508 -120T671 -253L632 -367Z" />
<glyph unicode="|" horiz-adv-x="501" d="M326 -270H176V1456H326V-270Z" />
<glyph unicode="}" horiz-adv-x="694" d="M59 1597Q196 1559 273 1490T383 1329T415 1132V925Q415 816 465 752T627 687V575Q486 575 398 620T269 745T228 925V1132Q228 1255 184 1350T20 1484L59 1597ZM20 -253Q139 -215 183 -120T228 98V305Q228 406 269 484T398
608T627 654V543Q515 543 465 478T415 305V98Q415 -7 383 -98T274 -259T59 -367L20 -253Z" />
<glyph unicode="~" horiz-adv-x="1393" d="M1263 777Q1263 675 1222 590T1107 454T939 403Q851 403 785 438T641 542Q590 589 547 615T454 641Q378 641 336 587T293 438L131 437Q131 541 172 623T286 754T454 802Q542 802 610 766T753 663Q806 614 848 589T939
564Q1016 564 1063 623T1110 777H1263Z" />
<glyph unicode="&#xa0;" horiz-adv-x="508" />
<glyph unicode="&#xa1;" horiz-adv-x="501" d="M171 684H339L353 -361H157L171 684ZM359 997Q359 953 332 922T250 891Q196 891 168 922T139 997Q139 1041 167 1071T250 1101Q304 1101 331 1071T359 997Z" />
<glyph unicode="&#xa2;" horiz-adv-x="1121" d="M670 1030H483V1318H670V1030ZM670 -245H483V42H670V-245ZM586 130Q652 130 708 157T800 233T841 342H1018Q1013 246 953 164T797 31T586 -20Q423 -20 316 54T157 252T104 520V562Q104 708 157 830T317 1027T586
1102Q713 1102 808 1051T958 911T1018 710H841Q836 777 804 832T716 919T586 952Q473 952 409 894T318 747T291 562V520Q291 425 317 335T407 188T586 130Z" />
<glyph unicode="&#xa3;" horiz-adv-x="1191" d="M95 0V156H1129L1128 0H95ZM91 623V779H763V623H91ZM458 402Q459 308 431 227T346 103L172 156Q207 165 227 207T255 303T264 401L242 1039Q242 1177 300 1274T459 1424T687 1476Q883 1476 992 1369T1101 1087H907Q907
1171 874 1222T787 1296T671 1320Q573 1320 505 1248T436 1039L458 402Z" />
<glyph unicode="&#xa4;" horiz-adv-x="1460" d="M313 608Q313 514 346 431T437 285T571 186T735 150Q822 150 898 185T1033 284T1123 431T1156 608Q1156 703 1124 785T1033 930T899 1028T735 1064Q648 1064 572 1029T437 931T346 786T313 608ZM140 608Q140 741
186 855T314 1054T504 1186T735 1234Q858 1234 966 1187T1156 1054T1284 855T1330 608Q1330 475 1284 361T1156 162T966 28T735 -20Q612 -20 504 28T315 161T187 361T140 608ZM1169 923L1036 1059L1238 1265L1371 1129L1169 923ZM237 -26L105 109L307 314L439 180L237
-26ZM1036 179L1169 314L1371 109L1238 -27L1036 179ZM105 1129L237 1264L439 1058L307 923L105 1129Z" />
<glyph unicode="&#xa5;" horiz-adv-x="1076" d="M955 612H120V736H955V612ZM955 322H120V446H955V322ZM846 1456H1061L628 604H504L480 667L846 1456ZM603 660L572 604H449L15 1456H233L603 660ZM631 0H437V773H631V0Z" />
<glyph unicode="&#xa6;" horiz-adv-x="493" d="M147 -270V521H334V-270H147ZM334 698H147V1456H334V698Z" />
<glyph unicode="&#xa7;" horiz-adv-x="1257" d="M699 226Q823 226 891 283T959 428Q959 491 927 534T817 614T603 692Q458 731 355 780T196 908T141 1111Q141 1222 201 1304T372 1431T631 1477Q860 1477 991 1366T1123 1046H936Q936 1123 901 1186T798 1288T631
1326Q474 1326 401 1263T328 1113Q328 1046 356 1003T461 927T677 854Q826 813 931 763T1091 634T1146 431Q1146 280 1024 195T699 109V226ZM525 753Q401 753 342 696T283 553Q283 486 312 442T418 364T637 289Q785 248 888 199T1046 73T1101 -129Q1101 -303 968
-399T613 -495Q517 -495 424 -473T256 -401T135 -268T90 -64L277 -62Q277 -142 307 -196T386 -283T494 -330T613 -345Q757 -345 835 -284T914 -131Q914 -69 883 -27T775 51T563 127Q417 166 313 217T152 347T96 551Q96 698 212 786T525 874V753Z" />
<glyph unicode="&#xa8;" horiz-adv-x="856" d="M100 1372Q100 1416 128 1447T210 1478Q264 1478 292 1447T320 1372Q320 1329 292 1299T210 1268Q156 1268 128 1298T100 1372ZM531 1370Q531 1414 558 1445T640 1476Q694 1476 722 1445T751 1370Q751 1327 723 1297T640
1266Q586 1266 559 1296T531 1370Z" />
<glyph unicode="&#xa9;" horiz-adv-x="1609" d="M1119 598Q1119 441 1030 363T788 284Q628 284 535 391T441 671V786Q441 958 534 1065T788 1173Q941 1173 1030 1095T1120 860H974Q974 959 927 1002T788 1046Q722 1046 677 1013T609 921T586 787V671Q586 556 637
484T788 412Q879 412 926 454T973 598H1119ZM207 729Q207 596 253 481T381 280T570 146T801 98Q924 98 1031 146T1220 280T1348 481T1394 729Q1394 863 1348 977T1221 1176T1032 1309T801 1357Q678 1357 571 1310T381 1177T253 977T207 729ZM91 729Q91 888 146
1024T299 1261T525 1419T801 1476Q948 1476 1076 1420T1302 1262T1455 1024T1510 729Q1510 570 1455 434T1303 196T1077 36T801 -21Q654 -21 526 36T299 195T146 434T91 729Z" />
<glyph unicode="&#xaa;" horiz-adv-x="916" d="M594 1202Q594 1267 564 1302T471 1337Q402 1337 363 1310T324 1231L162 1244Q162 1345 246 1411T471 1477Q600 1477 679 1408T758 1201V887Q758 838 764 794T784 706H618Q607 741 601 781T594 862V1202ZM636 1038H487Q396
1038 354 1004T311 922Q311 879 341 854T435 828Q478 828 521 847T594 895T623 949L640 838Q626 805 595 771T514 715T396 692Q276 692 212 753T147 918Q147 1028 231 1088T486 1149H635L636 1038Z" />
<glyph unicode="&#xab;" horiz-adv-x="961" d="M533 800L356 801V814L651 1202H794L533 800ZM794 407H651L356 795V808L533 809L794 407ZM609 544L432 545V558L727 946H870L609 544ZM870 151H727L432 539V552L609 553L870 151Z" />
<glyph unicode="&#xac;" horiz-adv-x="1135" d="M959 640H127V800H959V640ZM959 376H772V726H959V376Z" />
<glyph unicode="&#xad;" horiz-adv-x="600" d="M526 544H37V695H526V544Z" />
<glyph unicode="&#xae;" horiz-adv-x="1609" d="M609 655L607 782H809Q872 784 920 814T969 904Q969 979 929 1009T788 1039H653V317H511V1165H788Q937 1165 1023 1102T1110 910Q1110 829 1054 774T894 689Q891 689 888 683T881 676Q864 666 860 662T851 656T826
655H609ZM836 745Q991 745 1048 680T1105 514V460Q1105 423 1109 390T1122 333V317H976Q966 343 965 391T963 461V513Q963 586 930 620T816 655L836 745ZM206 729Q206 596 252 481T380 280T569 146T800 98Q923 98 1030 146T1219 280T1347 481T1393 729Q1393 863
1347 977T1220 1176T1031 1309T800 1357Q677 1357 570 1310T380 1177T252 977T206 729ZM90 729Q90 888 145 1024T298 1261T524 1419T800 1476Q947 1476 1075 1420T1302 1262T1455 1024T1510 729Q1510 570 1455 434T1302 196T1076 36T800 -21Q653 -21 525 36T298
195T145 434T90 729Z" />
<glyph unicode="&#xaf;" horiz-adv-x="940" d="M815 1304H143V1445H815V1304Z" />
<glyph unicode="&#xb0;" horiz-adv-x="765" d="M131 1217Q131 1288 166 1347T259 1441T386 1477Q455 1477 512 1442T603 1347T637 1217Q637 1146 603 1088T512 995T386 961Q317 961 259 995T166 1087T131 1217ZM256 1217Q256 1162 294 1125T386 1088Q440 1088
476 1125T512 1217Q512 1274 476 1312T386 1350Q332 1350 294 1312T256 1217Z" />
<glyph unicode="&#xb1;" horiz-adv-x="1095" d="M1013 704H97V854H1013V704ZM651 289H482V1267H651V289ZM970 1H135V151H970V1Z" />
<glyph unicode="&#xb2;" horiz-adv-x="752" d="M684 667H84V775L373 1046Q440 1108 466 1152T493 1229Q493 1278 461 1309T370 1340Q295 1340 260 1302T225 1206H66Q66 1278 102 1337T205 1431T366 1467Q500 1467 576 1404T652 1231Q652 1178 629 1132T563 1040T461
941L286 794H684V667Z" />
<glyph unicode="&#xb3;" horiz-adv-x="752" d="M350 1126Q423 1126 459 1156T495 1236Q495 1280 464 1310T363 1340Q307 1340 270 1315T232 1246H73Q73 1314 111 1363T215 1440T360 1467Q491 1467 572 1410T653 1243Q653 1190 621 1146T527 1076T377 1049H265V1126H350ZM265
1088H377Q477 1088 541 1065T636 996T667 887Q667 777 580 717T361 656Q286 656 218 680T106 756T63 889H221Q221 844 261 814T366 783Q436 783 472 814T508 895Q508 958 466 984T350 1011H265V1088Z" />
<glyph unicode="&#xb4;" horiz-adv-x="644" d="M317 1536H542L273 1243H123L317 1536Z" />
<glyph unicode="&#xb5;" horiz-adv-x="1129" d="M136 629H304L318 -416H122L136 629ZM802 1082H989V0H811L802 250V1082ZM915 480Q915 336 874 223T740 45T491 -20Q332 -20 234 74T136 384V1082H323V382Q323 284 351 231T425 157T521 136Q639 136 708 181T807
305T837 478L915 480Z" />
<glyph unicode="&#xb6;" horiz-adv-x="1002" d="M646 0V520H559Q400 520 291 580T124 747T67 988Q67 1122 124 1228T290 1395T559 1456H834V0H646Z" />
<glyph unicode="&#xb7;" horiz-adv-x="536" d="M147 729Q147 776 176 808T262 840Q319 840 348 808T378 729Q378 683 349 652T262 620Q206 620 177 651T147 729Z" />
<glyph unicode="&#xb8;" horiz-adv-x="508" d="M286 0L274 -53Q332 -63 379 -101T427 -226Q427 -320 350 -377T123 -435L116 -329Q162 -329 199 -319T259 -287T282 -230Q282 -179 244 -161T121 -135L152 0H286Z" />
<glyph unicode="&#xb9;" horiz-adv-x="752" d="M496 667H338V1270L123 1212V1340L478 1456H496V667Z" />
<glyph unicode="&#xba;" horiz-adv-x="932" d="M123 1124Q123 1279 215 1378T465 1477Q624 1477 716 1378T808 1124V1043Q808 889 717 790T467 691Q308 691 216 790T123 1043V1124ZM287 1043Q287 952 331 891T467 829Q556 829 600 890T644 1043V1124Q644 1214
600 1275T465 1337Q375 1337 331 1276T287 1124V1043Z" />
<glyph unicode="&#xbb;" horiz-adv-x="961" d="M363 555L540 554V541L245 153H103L363 555ZM245 949L540 560V547L363 546L103 949H245ZM713 555L890 554V541L595 153H453L713 555ZM595 949L890 560V547L713 546L453 949H595Z" />
<glyph unicode="&#xbc;" horiz-adv-x="1466" d="M488 111L383 177L1094 1315L1199 1249L488 111ZM496 546H338V1149L123 1091V1219L478 1335H496V546ZM1414 170H775L768 271L1145 789H1270L1133 561L927 299H1414V170ZM1307 0H1148V789H1307V0Z" />
<glyph unicode="&#xbd;" horiz-adv-x="1584" d="M478 111L373 177L1084 1315L1189 1249L478 111ZM496 546H338V1149L123 1091V1219L478 1335H496V546ZM1516 0H916V108L1205 379Q1272 441 1298 485T1325 562Q1325 611 1293 642T1202 673Q1127 673 1092 635T1057
539H898Q898 611 934 670T1037 764T1198 800Q1332 800 1408 737T1484 564Q1484 511 1461 465T1395 373T1293 274L1118 127H1516V0Z" />
<glyph unicode="&#xbe;" horiz-adv-x="1576" d="M350 998Q423 998 459 1028T495 1108Q495 1152 464 1182T363 1212Q307 1212 270 1187T232 1118H73Q73 1186 111 1235T215 1312T360 1339Q491 1339 572 1282T653 1115Q653 1062 621 1018T527 948T377 921H265V998H350ZM265
960H377Q477 960 541 937T636 868T667 759Q667 649 580 589T361 528Q286 528 218 552T106 628T63 761H221Q221 716 261 686T366 655Q436 655 472 686T508 767Q508 830 466 856T350 883H265V960ZM598 111L493 177L1204 1315L1309 1249L598 111ZM1524 170H885L878
271L1255 789H1380L1243 561L1037 299H1524V170ZM1417 0H1258V789H1417V0Z" />
<glyph unicode="&#xbf;" horiz-adv-x="970" d="M590 680Q589 585 572 526T519 416T420 299Q378 254 340 212T279 119T255 -1Q255 -110 312 -167T478 -225Q565 -225 633 -175T703 -20H890Q889 -134 834 -216T687 -342T478 -386Q283 -386 176 -286T68 -6Q68 85 104
162T197 306T313 431Q349 466 368 504T395 587T403 680H590ZM597 998Q597 954 570 923T488 892Q434 892 406 923T377 998Q377 1042 405 1072T488 1102Q542 1102 569 1072T597 998Z" />
<glyph unicode="&#xc0;" horiz-adv-x="1338" d="M228 0H28L584 1456H712L709 1328L228 0ZM629 1328L627 1456H754L1311 0H1112L629 1328ZM1088 381H269V538H1088V381ZM762 1554H602L343 1847H569L762 1554Z" />
<glyph unicode="&#xc1;" horiz-adv-x="1338" d="M228 0H28L584 1456H712L709 1328L228 0ZM629 1328L627 1456H754L1311 0H1112L629 1328ZM1088 381H269V538H1088V381ZM774 1847H999L730 1554H580L774 1847Z" />
<glyph unicode="&#xc2;" horiz-adv-x="1338" d="M228 0H28L584 1456H712L709 1328L228 0ZM629 1328L627 1456H754L1311 0H1112L629 1328ZM1088 381H269V538H1088V381ZM977 1574V1564H823L673 1734L524 1564H371V1575L617 1847H729L977 1574Z" />
<glyph unicode="&#xc3;" horiz-adv-x="1338" d="M228 0H28L584 1456H712L709 1328L228 0ZM629 1328L627 1456H754L1311 0H1112L629 1328ZM1088 381H269V538H1088V381ZM1029 1815Q1029 1742 1000 1688T923 1604T813 1574Q762 1574 729 1588T670 1621T616 1654T545
1669Q503 1669 475 1637T446 1557L321 1564Q321 1637 349 1692T426 1778T536 1810Q578 1810 611 1796T673 1762T733 1729T804 1714Q846 1714 875 1746T904 1827L1029 1815Z" />
<glyph unicode="&#xc4;" horiz-adv-x="1338" d="M228 0H28L584 1456H712L709 1328L228 0ZM629 1328L627 1456H754L1311 0H1112L629 1328ZM1088 381H269V538H1088V381ZM350 1683Q350 1727 378 1758T460 1789Q514 1789 542 1758T570 1683Q570 1640 542 1610T460
1579Q406 1579 378 1609T350 1683ZM781 1681Q781 1725 808 1756T890 1787Q944 1787 972 1756T1001 1681Q1001 1638 973 1608T890 1577Q836 1577 809 1607T781 1681Z" />
<glyph unicode="&#xc5;" horiz-adv-x="1338" d="M228 0H28L584 1456H712L709 1328L228 0ZM629 1328L627 1456H754L1311 0H1112L629 1328ZM1088 381H269V538H1088V381ZM457 1730Q457 1817 519 1877T673 1938Q764 1938 826 1878T888 1730Q888 1643 826 1585T673
1527Q581 1527 519 1585T457 1730ZM557 1730Q557 1686 589 1651T673 1615Q724 1615 756 1650T789 1730Q789 1777 757 1813T673 1849Q622 1849 590 1813T557 1730Z" />
<glyph unicode="&#xc6;" horiz-adv-x="1915" d="M213 0H-16L865 1456H985L970 1308L213 0ZM1116 354H372V527H1116V354ZM1881 0H1148V150H1881V0ZM1183 0H996L935 1456H1122L1183 0ZM1738 683H1108V833H1738V683ZM1819 1306H1087V1456H1819V1306Z" />
<glyph unicode="&#xc7;" horiz-adv-x="1333" d="M1241 462Q1226 325 1162 216T981 43T688 -20Q517 -20 389 63T190 299T119 654V801Q119 1005 190 1156T394 1392T706 1476Q871 1476 985 1415T1162 1243T1241 989H1047Q1025 1142 950 1230T706 1319Q577 1319 490
1255T359 1074T314 803V654Q314 511 354 394T476 206T688 136Q811 136 883 175T993 287T1047 462H1241ZM752 -10L740 -63Q798 -73 845 -111T893 -236Q893 -330 816 -387T589 -445L582 -339Q628 -339 665 -329T725 -297T748 -240Q748 -189 710 -171T587 -145L618
-10H752Z" />
<glyph unicode="&#xc8;" horiz-adv-x="1164" d="M1094 0H325V156H1094V0ZM363 0H169V1456H363V0ZM992 674H325V830H992V674ZM1084 1299H325V1456H1084V1299ZM708 1565H548L289 1858H515L708 1565Z" />
<glyph unicode="&#xc9;" horiz-adv-x="1164" d="M1094 0H325V156H1094V0ZM363 0H169V1456H363V0ZM992 674H325V830H992V674ZM1084 1299H325V1456H1084V1299ZM720 1858H945L676 1565H526L720 1858Z" />
<glyph unicode="&#xca;" horiz-adv-x="1164" d="M1094 0H325V156H1094V0ZM363 0H169V1456H363V0ZM992 674H325V830H992V674ZM1084 1299H325V1456H1084V1299ZM923 1585V1575H769L619 1745L470 1575H317V1586L563 1858H675L923 1585Z" />
<glyph unicode="&#xcb;" horiz-adv-x="1164" d="M1094 0H325V156H1094V0ZM363 0H169V1456H363V0ZM992 674H325V830H992V674ZM1084 1299H325V1456H1084V1299ZM296 1694Q296 1738 324 1769T406 1800Q460 1800 488 1769T516 1694Q516 1651 488 1621T406 1590Q352
1590 324 1620T296 1694ZM727 1692Q727 1736 754 1767T836 1798Q890 1798 918 1767T947 1692Q947 1649 919 1619T836 1588Q782 1588 755 1618T727 1692Z" />
<glyph unicode="&#xcc;" horiz-adv-x="558" d="M377 0H183V1456H377V0ZM368 1565H208L-51 1858H175L368 1565Z" />
<glyph unicode="&#xcd;" horiz-adv-x="558" d="M377 0H183V1456H377V0ZM380 1858H605L336 1565H186L380 1858Z" />
<glyph unicode="&#xce;" horiz-adv-x="558" d="M377 0H183V1456H377V0ZM583 1585V1575H429L279 1745L130 1575H-23V1586L223 1858H335L583 1585Z" />
<glyph unicode="&#xcf;" horiz-adv-x="558" d="M377 0H183V1456H377V0ZM-44 1694Q-44 1738 -16 1769T66 1800Q120 1800 148 1769T176 1694Q176 1651 148 1621T66 1590Q12 1590 -16 1620T-44 1694ZM387 1692Q387 1736 414 1767T496 1798Q550 1798 578 1767T607
1692Q607 1649 579 1619T496 1588Q442 1588 415 1618T387 1692Z" />
<glyph unicode="&#xd0;" horiz-adv-x="1344" d="M259 0L261 156H563Q718 156 822 221T978 405T1031 684V774Q1031 941 979 1058T825 1237T580 1299H253V1456H580Q772 1456 916 1373T1142 1136T1223 772V684Q1223 473 1142 320T913 84T563 0H259ZM363 0H169V1456H363V0ZM644
666H6V816H644V666Z" />
<glyph unicode="&#xd1;" horiz-adv-x="1461" d="M1289 0H1094L363 1126V0H169V1456H363L1097 327V1456H1289V0ZM1082 1815Q1082 1742 1053 1688T976 1604T866 1574Q815 1574 782 1588T723 1621T669 1654T598 1669Q556 1669 528 1637T499 1557L374 1564Q374 1637
402 1692T479 1778T589 1810Q631 1810 664 1796T726 1762T786 1729T857 1714Q899 1714 928 1746T957 1827L1082 1815Z" />
<glyph unicode="&#xd2;" horiz-adv-x="1410" d="M1290 681Q1290 463 1218 306T1015 65T706 -20Q534 -20 401 64T193 306T118 681V774Q118 992 192 1149T399 1391T704 1476Q882 1476 1013 1392T1217 1150T1290 774V681ZM1098 776Q1098 950 1051 1069T916 1251T704
1313Q585 1313 497 1251T360 1070T311 776V681Q311 506 360 386T498 204T706 142Q831 142 918 204T1052 386T1098 681V776ZM796 1556H636L377 1849H603L796 1556Z" />
<glyph unicode="&#xd3;" horiz-adv-x="1410" d="M1290 681Q1290 463 1218 306T1015 65T706 -20Q534 -20 401 64T193 306T118 681V774Q118 992 192 1149T399 1391T704 1476Q882 1476 1013 1392T1217 1150T1290 774V681ZM1098 776Q1098 950 1051 1069T916 1251T704
1313Q585 1313 497 1251T360 1070T311 776V681Q311 506 360 386T498 204T706 142Q831 142 918 204T1052 386T1098 681V776ZM808 1849H1033L764 1556H614L808 1849Z" />
<glyph unicode="&#xd4;" horiz-adv-x="1410" d="M1290 681Q1290 463 1218 306T1015 65T706 -20Q534 -20 401 64T193 306T118 681V774Q118 992 192 1149T399 1391T704 1476Q882 1476 1013 1392T1217 1150T1290 774V681ZM1098 776Q1098 950 1051 1069T916 1251T704
1313Q585 1313 497 1251T360 1070T311 776V681Q311 506 360 386T498 204T706 142Q831 142 918 204T1052 386T1098 681V776ZM1011 1576V1566H857L707 1736L558 1566H405V1577L651 1849H763L1011 1576Z" />
<glyph unicode="&#xd5;" horiz-adv-x="1410" d="M1290 681Q1290 463 1218 306T1015 65T706 -20Q534 -20 401 64T193 306T118 681V774Q118 992 192 1149T399 1391T704 1476Q882 1476 1013 1392T1217 1150T1290 774V681ZM1098 776Q1098 950 1051 1069T916 1251T704
1313Q585 1313 497 1251T360 1070T311 776V681Q311 506 360 386T498 204T706 142Q831 142 918 204T1052 386T1098 681V776ZM1063 1817Q1063 1744 1034 1690T957 1606T847 1576Q796 1576 763 1590T704 1623T650 1656T579 1671Q537 1671 509 1639T480 1559L355 1566Q355
1639 383 1694T460 1780T570 1812Q612 1812 645 1798T707 1764T767 1731T838 1716Q880 1716 909 1748T938 1829L1063 1817Z" />
<glyph unicode="&#xd6;" horiz-adv-x="1410" d="M1290 681Q1290 463 1218 306T1015 65T706 -20Q534 -20 401 64T193 306T118 681V774Q118 992 192 1149T399 1391T704 1476Q882 1476 1013 1392T1217 1150T1290 774V681ZM1098 776Q1098 950 1051 1069T916 1251T704
1313Q585 1313 497 1251T360 1070T311 776V681Q311 506 360 386T498 204T706 142Q831 142 918 204T1052 386T1098 681V776ZM384 1685Q384 1729 412 1760T494 1791Q548 1791 576 1760T604 1685Q604 1642 576 1612T494 1581Q440 1581 412 1611T384 1685ZM815 1683Q815
1727 842 1758T924 1789Q978 1789 1006 1758T1035 1683Q1035 1640 1007 1610T924 1579Q870 1579 843 1609T815 1683Z" />
<glyph unicode="&#xd7;" horiz-adv-x="1093" d="M89 326L868 1120L988 998L209 204L89 326ZM91 998L211 1120L990 326L870 204L91 998Z" />
<glyph unicode="&#xd8;" horiz-adv-x="1410" d="M308 -93H164L1169 1516H1310L308 -93ZM1290 681Q1290 463 1218 306T1015 65T706 -20Q534 -20 401 64T193 306T118 681V774Q118 992 192 1149T399 1391T704 1476Q882 1476 1013 1392T1217 1150T1290 774V681ZM1098
776Q1098 950 1051 1069T916 1251T704 1313Q585 1313 497 1251T360 1070T311 776V681Q311 506 360 386T498 204T706 142Q831 142 918 204T1052 386T1098 681V776Z" />
<glyph unicode="&#xd9;" horiz-adv-x="1328" d="M1195 1456V471Q1195 307 1122 198T928 35T666 -20Q518 -20 399 34T210 198T140 471V1456H332V471Q332 357 374 283T491 173T666 136Q767 136 842 172T958 283T1000 471V1456H1195ZM756 1554H596L337 1847H563L756 1554Z" />
<glyph unicode="&#xda;" horiz-adv-x="1328" d="M1195 1456V471Q1195 307 1122 198T928 35T666 -20Q518 -20 399 34T210 198T140 471V1456H332V471Q332 357 374 283T491 173T666 136Q767 136 842 172T958 283T1000 471V1456H1195ZM768 1847H993L724 1554H574L768 1847Z" />
<glyph unicode="&#xdb;" horiz-adv-x="1328" d="M1195 1456V471Q1195 307 1122 198T928 35T666 -20Q518 -20 399 34T210 198T140 471V1456H332V471Q332 357 374 283T491 173T666 136Q767 136 842 172T958 283T1000 471V1456H1195ZM971 1574V1564H817L667 1734L518
1564H365V1575L611 1847H723L971 1574Z" />
<glyph unicode="&#xdc;" horiz-adv-x="1328" d="M1195 1456V471Q1195 307 1122 198T928 35T666 -20Q518 -20 399 34T210 198T140 471V1456H332V471Q332 357 374 283T491 173T666 136Q767 136 842 172T958 283T1000 471V1456H1195ZM344 1683Q344 1727 372 1758T454
1789Q508 1789 536 1758T564 1683Q564 1640 536 1610T454 1579Q400 1579 372 1609T344 1683ZM775 1681Q775 1725 802 1756T884 1787Q938 1787 966 1756T995 1681Q995 1638 967 1608T884 1577Q830 1577 803 1607T775 1681Z" />
<glyph unicode="&#xdd;" horiz-adv-x="1230" d="M614 724L992 1456H1212L711 544V0H516V544L15 1456H237L614 724ZM719 1846H944L675 1553H525L719 1846Z" />
<glyph unicode="&#xde;" horiz-adv-x="1210" d="M353 1456V0H166V1456H353ZM630 1163Q788 1163 896 1108T1061 957T1118 738Q1118 616 1062 520T897 369T630 314H312V464H630Q737 464 803 503T900 605T931 736Q931 806 901 869T804 973T630 1013H351L261 1163H630Z" />
<glyph unicode="&#xdf;" horiz-adv-x="1218" d="M325 0H139V1112Q139 1331 248 1442T533 1554Q642 1554 727 1518T861 1408T910 1217Q910 1137 891 1084T846 990T802 911T782 820Q782 765 817 722T904 638T1008 553T1096 451T1131 317Q1131 203 1082 128T945 17T746
-20Q691 -20 632 -10T523 17T447 53L489 206Q524 184 590 157T726 130Q804 130 852 154T922 218T944 308Q944 365 909 409T822 493T718 578T631 682T596 822Q596 882 617 928T665 1014T713 1099T734 1202Q734 1269 709 1313T641 1381T543 1404Q440 1404 383 1334T325
1112V0Z" />
<glyph unicode="&#xe0;" horiz-adv-x="1115" d="M778 742Q778 839 721 896T551 954Q482 954 430 930T348 867T319 782H132Q132 860 185 933T334 1054T562 1102Q680 1102 771 1062T913 942T965 740V236Q965 182 974 121T1003 16V0H808Q794 32 786 85T778 185V742ZM812
526H626Q468 526 382 476T296 326Q296 248 348 194T502 140Q587 140 652 176T755 265T796 367L876 278Q869 236 838 185T756 88T634 11T475 -20Q365 -20 283 22T155 138T109 300Q109 475 241 565T596 656H810L812 526ZM671 1243H511L252 1536H478L671 1243Z" />
<glyph unicode="&#xe1;" horiz-adv-x="1115" d="M778 742Q778 839 721 896T551 954Q482 954 430 930T348 867T319 782H132Q132 860 185 933T334 1054T562 1102Q680 1102 771 1062T913 942T965 740V236Q965 182 974 121T1003 16V0H808Q794 32 786 85T778 185V742ZM812
526H626Q468 526 382 476T296 326Q296 248 348 194T502 140Q587 140 652 176T755 265T796 367L876 278Q869 236 838 185T756 88T634 11T475 -20Q365 -20 283 22T155 138T109 300Q109 475 241 565T596 656H810L812 526ZM683 1536H908L639 1243H489L683 1536Z" />
<glyph unicode="&#xe2;" horiz-adv-x="1115" d="M778 742Q778 839 721 896T551 954Q482 954 430 930T348 867T319 782H132Q132 860 185 933T334 1054T562 1102Q680 1102 771 1062T913 942T965 740V236Q965 182 974 121T1003 16V0H808Q794 32 786 85T778 185V742ZM812
526H626Q468 526 382 476T296 326Q296 248 348 194T502 140Q587 140 652 176T755 265T796 367L876 278Q869 236 838 185T756 88T634 11T475 -20Q365 -20 283 22T155 138T109 300Q109 475 241 565T596 656H810L812 526ZM885 1263V1253H731L581 1423L432 1253H279V1264L525
1536H637L885 1263Z" />
<glyph unicode="&#xe3;" horiz-adv-x="1115" d="M778 742Q778 839 721 896T551 954Q482 954 430 930T348 867T319 782H132Q132 860 185 933T334 1054T562 1102Q680 1102 771 1062T913 942T965 740V236Q965 182 974 121T1003 16V0H808Q794 32 786 85T778 185V742ZM812
526H626Q468 526 382 476T296 326Q296 248 348 194T502 140Q587 140 652 176T755 265T796 367L876 278Q869 236 838 185T756 88T634 11T475 -20Q365 -20 283 22T155 138T109 300Q109 475 241 565T596 656H810L812 526ZM937 1504Q937 1431 908 1377T831 1293T721
1263Q670 1263 637 1277T578 1310T524 1343T453 1358Q411 1358 383 1326T354 1246L229 1253Q229 1326 257 1381T334 1467T444 1499Q486 1499 519 1485T581 1451T641 1418T712 1403Q754 1403 783 1435T812 1516L937 1504Z" />
<glyph unicode="&#xe4;" horiz-adv-x="1115" d="M778 742Q778 839 721 896T551 954Q482 954 430 930T348 867T319 782H132Q132 860 185 933T334 1054T562 1102Q680 1102 771 1062T913 942T965 740V236Q965 182 974 121T1003 16V0H808Q794 32 786 85T778 185V742ZM812
526H626Q468 526 382 476T296 326Q296 248 348 194T502 140Q587 140 652 176T755 265T796 367L876 278Q869 236 838 185T756 88T634 11T475 -20Q365 -20 283 22T155 138T109 300Q109 475 241 565T596 656H810L812 526ZM259 1372Q259 1416 287 1447T369 1478Q423
1478 451 1447T479 1372Q479 1329 451 1299T369 1268Q315 1268 287 1298T259 1372ZM690 1370Q690 1414 717 1445T799 1476Q853 1476 881 1445T910 1370Q910 1327 882 1297T799 1266Q745 1266 718 1296T690 1370Z" />
<glyph unicode="&#xe5;" horiz-adv-x="1115" d="M778 742Q778 839 721 896T551 954Q482 954 430 930T348 867T319 782H132Q132 860 185 933T334 1054T562 1102Q680 1102 771 1062T913 942T965 740V236Q965 182 974 121T1003 16V0H808Q794 32 786 85T778 185V742ZM812
526H626Q468 526 382 476T296 326Q296 248 348 194T502 140Q587 140 652 176T755 265T796 367L876 278Q869 236 838 185T756 88T634 11T475 -20Q365 -20 283 22T155 138T109 300Q109 475 241 565T596 656H810L812 526ZM366 1419Q366 1506 428 1566T582 1627Q673
1627 735 1567T797 1419Q797 1332 735 1274T582 1216Q490 1216 428 1274T366 1419ZM466 1419Q466 1375 498 1340T582 1304Q633 1304 665 1339T698 1419Q698 1466 666 1502T582 1538Q531 1538 499 1502T466 1419Z" />
<glyph unicode="&#xe6;" horiz-adv-x="1730" d="M748 720Q748 827 694 889T536 952Q424 952 358 895T292 760L106 778Q106 872 160 945T311 1060T536 1102Q712 1102 821 1006T930 718V218L748 183V720ZM790 497H529Q442 497 384 470T295 397T265 300Q265 228 315
179T470 129Q524 129 580 149T684 202T761 271T791 338L888 195Q862 146 803 96T652 13T433 -21Q262 -21 170 67T78 304Q78 462 192 548T527 635H790V497ZM1263 -21Q1100 -21 987 48T816 240T758 520V564Q758 722 818 844T982 1034T1218 1102Q1434 1102 1547 971T1661
616V499H857V640H1474V671Q1474 747 1449 811T1368 913T1218 952Q1127 952 1064 900T967 759T934 564V520Q934 413 968 324T1075 183T1263 130Q1382 130 1455 166T1578 237L1643 102Q1621 84 1573 55T1447 3T1263 -21Z" />
<glyph unicode="&#xe7;" horiz-adv-x="1073" d="M574 130Q640 130 696 157T788 233T829 342H1006Q1001 246 941 164T785 31T574 -20Q411 -20 304 54T145 252T92 520V562Q92 708 145 830T305 1027T574 1102Q701 1102 796 1051T946 911T1006 710H829Q824 777 792
832T704 919T574 952Q461 952 397 894T306 747T279 562V520Q279 425 305 335T395 188T574 130ZM605 -10L593 -63Q651 -73 698 -111T746 -236Q746 -330 669 -387T442 -445L435 -339Q481 -339 518 -329T578 -297T601 -240Q601 -189 563 -171T440 -145L471 -10H605Z"
/>
<glyph unicode="&#xe8;" horiz-adv-x="1087" d="M590 -20Q439 -20 328 47T155 233T93 503V546Q93 722 160 846T336 1036T566 1102Q722 1102 820 1033T965 844T1012 573V490H204V640H825V654Q821 726 796 794T716 907T566 952Q482 952 418 905T317 767T280 546V503Q280
400 318 316T428 181T600 130Q698 130 766 170T885 277L998 189Q946 109 849 45T590 -20ZM655 1243H495L236 1536H462L655 1243Z" />
<glyph unicode="&#xe9;" horiz-adv-x="1087" d="M590 -20Q439 -20 328 47T155 233T93 503V546Q93 722 160 846T336 1036T566 1102Q722 1102 820 1033T965 844T1012 573V490H204V640H825V654Q821 726 796 794T716 907T566 952Q482 952 418 905T317 767T280 546V503Q280
400 318 316T428 181T600 130Q698 130 766 170T885 277L998 189Q946 109 849 45T590 -20ZM666 1536H891L622 1243H472L666 1536Z" />
<glyph unicode="&#xea;" horiz-adv-x="1087" d="M590 -20Q439 -20 328 47T155 233T93 503V546Q93 722 160 846T336 1036T566 1102Q722 1102 820 1033T965 844T1012 573V490H204V640H825V654Q821 726 796 794T716 907T566 952Q482 952 418 905T317 767T280 546V503Q280
400 318 316T428 181T600 130Q698 130 766 170T885 277L998 189Q946 109 849 45T590 -20ZM869 1263V1253H715L565 1423L416 1253H263V1264L509 1536H621L869 1263Z" />
<glyph unicode="&#xeb;" horiz-adv-x="1087" d="M590 -20Q439 -20 328 47T155 233T93 503V546Q93 722 160 846T336 1036T566 1102Q722 1102 820 1033T965 844T1012 573V490H204V640H825V654Q821 726 796 794T716 907T566 952Q482 952 418 905T317 767T280 546V503Q280
400 318 316T428 181T600 130Q698 130 766 170T885 277L998 189Q946 109 849 45T590 -20ZM242 1372Q242 1416 270 1447T352 1478Q406 1478 434 1447T462 1372Q462 1329 434 1299T352 1268Q298 1268 270 1298T242 1372ZM673 1370Q673 1414 700 1445T782 1476Q836
1476 864 1445T893 1370Q893 1327 865 1297T782 1266Q728 1266 701 1296T673 1370Z" />
<glyph unicode="&#xec;" horiz-adv-x="508" d="M342 0H156V1082H342V0ZM342 1241H182L-77 1534H149L342 1241Z" />
<glyph unicode="&#xed;" horiz-adv-x="508" d="M342 0H156V1082H342V0ZM354 1534H579L310 1241H160L354 1534Z" />
<glyph unicode="&#xee;" horiz-adv-x="508" d="M342 0H156V1082H342V0ZM557 1261V1251H403L253 1421L104 1251H-49V1262L197 1534H309L557 1261Z" />
<glyph unicode="&#xef;" horiz-adv-x="508" d="M342 0H156V1082H342V0ZM-70 1370Q-70 1414 -42 1445T40 1476Q94 1476 122 1445T150 1370Q150 1327 122 1297T40 1266Q-14 1266 -42 1296T-70 1370ZM361 1368Q361 1412 388 1443T470 1474Q524 1474 552 1443T581
1368Q581 1325 553 1295T470 1264Q416 1264 389 1294T361 1368Z" />
<glyph unicode="&#xf0;" horiz-adv-x="1201" d="M312 1581Q537 1530 708 1402T974 1080T1070 633V535Q1070 371 1010 246T844 50T602 -20Q462 -20 355 45T187 221T126 468Q126 622 184 736T343 914T574 978Q687 978 777 925T920 788T973 613L903 614Q903 647 886
684T833 753T744 806T618 827Q521 827 453 783T349 659T313 468Q313 386 347 309T446 181T606 131Q692 131 754 184T849 328T883 535V635Q883 811 834 943T697 1170T496 1327T254 1422L312 1581ZM451 1053L377 1152L915 1516L988 1417L451 1053Z" />
<glyph unicode="&#xf1;" horiz-adv-x="1131" d="M327 0H140V1082H317L327 851V0ZM205 586Q207 734 262 850T415 1034T645 1102Q752 1102 829 1063T949 937T992 709V0H805V711Q805 796 781 848T708 923T590 947Q521 947 465 918T368 838T305 722T283 583L205 586ZM928
1504Q928 1431 899 1377T822 1293T712 1263Q661 1263 628 1277T569 1310T515 1343T444 1358Q402 1358 374 1326T345 1246L220 1253Q220 1326 248 1381T325 1467T435 1499Q477 1499 510 1485T572 1451T632 1418T703 1403Q745 1403 774 1435T803 1516L928 1504Z"
/>
<glyph unicode="&#xf2;" horiz-adv-x="1169" d="M92 552Q92 709 152 833T322 1029T583 1102Q736 1102 847 1030T1017 833T1077 552V529Q1077 373 1018 249T848 52T585 -20Q433 -20 323 52T152 248T92 529V552ZM279 529Q279 422 313 331T414 185T585 130Q687 130
754 185T856 331T890 529V552Q890 659 856 750T754 896T583 952Q482 952 414 897T313 750T279 552V529ZM665 1243H505L246 1536H472L665 1243Z" />
<glyph unicode="&#xf3;" horiz-adv-x="1169" d="M92 552Q92 709 152 833T322 1029T583 1102Q736 1102 847 1030T1017 833T1077 552V529Q1077 373 1018 249T848 52T585 -20Q433 -20 323 52T152 248T92 529V552ZM279 529Q279 422 313 331T414 185T585 130Q687 130
754 185T856 331T890 529V552Q890 659 856 750T754 896T583 952Q482 952 414 897T313 750T279 552V529ZM676 1536H901L632 1243H482L676 1536Z" />
<glyph unicode="&#xf4;" horiz-adv-x="1169" d="M92 552Q92 709 152 833T322 1029T583 1102Q736 1102 847 1030T1017 833T1077 552V529Q1077 373 1018 249T848 52T585 -20Q433 -20 323 52T152 248T92 529V552ZM279 529Q279 422 313 331T414 185T585 130Q687 130
754 185T856 331T890 529V552Q890 659 856 750T754 896T583 952Q482 952 414 897T313 750T279 552V529ZM879 1263V1253H725L575 1423L426 1253H273V1264L519 1536H631L879 1263Z" />
<glyph unicode="&#xf5;" horiz-adv-x="1169" d="M92 552Q92 709 152 833T322 1029T583 1102Q736 1102 847 1030T1017 833T1077 552V529Q1077 373 1018 249T848 52T585 -20Q433 -20 323 52T152 248T92 529V552ZM279 529Q279 422 313 331T414 185T585 130Q687 130
754 185T856 331T890 529V552Q890 659 856 750T754 896T583 952Q482 952 414 897T313 750T279 552V529ZM931 1504Q931 1431 902 1377T825 1293T715 1263Q664 1263 631 1277T572 1310T518 1343T447 1358Q405 1358 377 1326T348 1246L223 1253Q223 1326 251 1381T328
1467T438 1499Q480 1499 513 1485T575 1451T635 1418T706 1403Q748 1403 777 1435T806 1516L931 1504Z" />
<glyph unicode="&#xf6;" horiz-adv-x="1169" d="M92 552Q92 709 152 833T322 1029T583 1102Q736 1102 847 1030T1017 833T1077 552V529Q1077 373 1018 249T848 52T585 -20Q433 -20 323 52T152 248T92 529V552ZM279 529Q279 422 313 331T414 185T585 130Q687 130
754 185T856 331T890 529V552Q890 659 856 750T754 896T583 952Q482 952 414 897T313 750T279 552V529ZM252 1372Q252 1416 280 1447T362 1478Q416 1478 444 1447T472 1372Q472 1329 444 1299T362 1268Q308 1268 280 1298T252 1372ZM683 1370Q683 1414 710 1445T792
1476Q846 1476 874 1445T903 1370Q903 1327 875 1297T792 1266Q738 1266 711 1296T683 1370Z" />
<glyph unicode="&#xf7;" horiz-adv-x="1170" d="M1069 601H71V784H1069V601ZM461 1098Q461 1145 490 1177T576 1210Q632 1210 662 1178T692 1098Q692 1052 662 1021T576 989Q519 989 490 1020T461 1098ZM461 282Q461 329 490 361T576 393Q632 393 662 361T692
282Q692 236 662 205T576 173Q519 173 490 204T461 282Z" />
<glyph unicode="&#xf8;" horiz-adv-x="1161" d="M321 -135H197L860 1209H984L321 -135ZM92 552Q92 709 152 833T322 1029T583 1102Q736 1102 847 1030T1017 833T1077 552V529Q1077 373 1018 249T848 52T585 -20Q433 -20 323 52T152 248T92 529V552ZM279 529Q279
422 313 331T414 185T585 130Q687 130 754 185T856 331T890 529V552Q890 659 856 750T754 896T583 952Q482 952 414 897T313 750T279 552V529Z" />
<glyph unicode="&#xf9;" horiz-adv-x="1129" d="M802 1082H989V0H811L802 250V1082ZM915 480Q915 336 874 223T740 45T491 -20Q332 -20 234 74T136 384V1082H323V382Q323 284 351 231T425 157T521 136Q639 136 708 181T807 305T837 478L915 480ZM657 1243H497L238
1536H464L657 1243Z" />
<glyph unicode="&#xfa;" horiz-adv-x="1129" d="M802 1082H989V0H811L802 250V1082ZM915 480Q915 336 874 223T740 45T491 -20Q332 -20 234 74T136 384V1082H323V382Q323 284 351 231T425 157T521 136Q639 136 708 181T807 305T837 478L915 480ZM668 1536H893L624
1243H474L668 1536Z" />
<glyph unicode="&#xfb;" horiz-adv-x="1129" d="M802 1082H989V0H811L802 250V1082ZM915 480Q915 336 874 223T740 45T491 -20Q332 -20 234 74T136 384V1082H323V382Q323 284 351 231T425 157T521 136Q639 136 708 181T807 305T837 478L915 480ZM871 1263V1253H717L567
1423L418 1253H265V1264L511 1536H623L871 1263Z" />
<glyph unicode="&#xfc;" horiz-adv-x="1129" d="M802 1082H989V0H811L802 250V1082ZM915 480Q915 336 874 223T740 45T491 -20Q332 -20 234 74T136 384V1082H323V382Q323 284 351 231T425 157T521 136Q639 136 708 181T807 305T837 478L915 480ZM245 1372Q245
1416 273 1447T355 1478Q409 1478 437 1447T465 1372Q465 1329 437 1299T355 1268Q301 1268 273 1298T245 1372ZM676 1370Q676 1414 703 1445T785 1476Q839 1476 867 1445T896 1370Q896 1327 868 1297T785 1266Q731 1266 704 1296T676 1370Z" />
<glyph unicode="&#xfd;" horiz-adv-x="969" d="M745 1082H944L510 -167Q495 -207 471 -253T409 -342T317 -410T189 -437Q174 -437 153 -434T113 -428T84 -421V-272Q92 -273 109 -275T134 -277Q228 -277 281 -238T367 -99L444 112L745 1082ZM505 241L553 46L419
-21L22 1082H226L505 241ZM609 1536H834L565 1243H415L609 1536Z" />
<glyph unicode="&#xfe;" horiz-adv-x="1181" d="M336 -416H149V1536H336V-416ZM1065 529Q1065 371 1016 247T873 52T645 -20Q506 -20 412 40T265 210T196 472V588Q212 747 265 862T412 1039T642 1102Q778 1102 872 1033T1016 840T1065 550V529ZM878 550Q878 658
847 748T752 893T587 947Q518 947 467 923T379 859T321 767T287 660V399Q307 329 342 268T438 168T589 130Q689 130 752 185T847 330T878 529V550Z" />
<glyph unicode="&#xff;" horiz-adv-x="969" d="M745 1082H944L510 -167Q495 -207 471 -253T409 -342T317 -410T189 -437Q174 -437 153 -434T113 -428T84 -421V-272Q92 -273 109 -275T134 -277Q228 -277 281 -238T367 -99L444 112L745 1082ZM505 241L553 46L419
-21L22 1082H226L505 241ZM185 1372Q185 1416 213 1447T295 1478Q349 1478 377 1447T405 1372Q405 1329 377 1299T295 1268Q241 1268 213 1298T185 1372ZM616 1370Q616 1414 643 1445T725 1476Q779 1476 807 1445T836 1370Q836 1327 808 1297T725 1266Q671 1266
644 1296T616 1370Z" />
<glyph unicode="&#x2013;" horiz-adv-x="1344" d="M1420 652H418V802H1420V652Z" />
<glyph unicode="&#x2014;" horiz-adv-x="1599" d="M1736 652H400V802H1736V652Z" />
<glyph unicode="&#x2018;" horiz-adv-x="411" d="M96 1195Q96 1256 116 1322T176 1449T272 1556L378 1484Q331 1418 306 1349T281 1198V1074H96V1195Z" />
<glyph unicode="&#x2019;" horiz-adv-x="411" d="M329 1408Q329 1348 309 1282T249 1154T154 1047L48 1119Q95 1185 119 1254T144 1406V1536H329V1408Z" />
<glyph unicode="&#x201a;" horiz-adv-x="409" d="M317 79Q317 19 297 -47T237 -175T142 -282L36 -210Q83 -144 107 -74T131 76V183H317V79Z" />
<glyph unicode="&#x201c;" horiz-adv-x="727" d="M105 1195Q105 1256 125 1322T185 1449T281 1556L387 1484Q340 1418 315 1349T290 1198V1074H105V1195ZM421 1195Q421 1256 441 1322T501 1449T597 1556L703 1484Q656 1418 631 1349T606 1198V1074H421V1195Z" />
<glyph unicode="&#x201d;" horiz-adv-x="734" d="M341 1408Q341 1348 321 1282T261 1154T166 1047L60 1119Q107 1185 131 1254T156 1406V1536H341V1408ZM649 1408Q649 1348 629 1282T569 1154T474 1047L368 1119Q415 1185 439 1254T464 1406V1536H649V1408Z" />
<glyph unicode="&#x201e;" horiz-adv-x="709" d="M317 79Q317 16 297 -54T237 -188T142 -300L36 -228Q83 -158 107 -84T131 76V246H317V79ZM615 79Q615 16 595 -54T535 -188T440 -300L334 -228Q381 -158 404 -84T428 76V246H615V79Z" />
<glyph unicode="&#x2022;" horiz-adv-x="691" d="M139 772Q139 858 193 914T342 970Q438 970 492 914T547 772V732Q547 646 493 591T343 536Q249 536 194 591T139 732V772Z" />
<glyph unicode="&#x2039;" horiz-adv-x="615" d="M285 547L108 548V561L403 949H546L285 547ZM546 154H403L108 542V555L285 556L546 154Z" />
<glyph unicode="&#x203a;" horiz-adv-x="615" d="M350 555L527 554V541L232 153H90L350 555ZM232 949L527 560V547L350 546L90 949H232Z" />
</font>
</defs>
</svg>
